<svg width="92.000977" height="28.000000" viewBox="0 0 92.001 28" fill="none" xmlns="http://www.w3.org/2000/svg" xmlns:xlink="http://www.w3.org/1999/xlink">
	<desc>
			Created with Pixso.
	</desc>
	<defs/>
	<path id="Vector" d="M55.08 0.53L59.56 7.13L69.97 7.13L69.97 27.98L77.12 27.98L77.12 7.13L87.51 7.13L92 0.53L55.08 0.53Z" fill="#FFFFFF" fill-opacity="1.000000" fill-rule="nonzero"/>
	<path id="Vector" d="M63.21 20.84C61.92 19.11 57.78 18.37 52.28 18.71C49.34 18.89 46.01 19.39 42.54 20.22C35.73 21.84 29.96 24.33 26.77 26.8C30.59 24.85 36.21 23.15 42.59 22.22C46.79 21.6 50.75 21.38 54.16 21.52L58.55 28L62.6 28L64.01 28L68.05 28L63.32 21.04L63.21 20.84Z" fill="#ED1C24" fill-opacity="1.000000" fill-rule="nonzero"/>
	<path id="Vector" d="M40.73 19.03C44.48 18.05 48.05 17.41 51.22 17.13C55.5 16.76 59.05 17.03 61.21 17.89C61.21 17.89 61.21 17.89 61.23 17.89C61.48 17.27 61.54 16.7 61.37 16.18C61.08 15.28 60.17 14.66 58.78 14.3L50.9 2.69C49.85 1.07 48.07 0 46.05 0C44.02 0 42.25 1.07 41.21 2.69L32.33 15.74C31.08 13.03 28.5 10.94 25.13 10.94C25.06 10.94 10.67 10.94 10.67 10.94C9.02 10.94 8.05 10.3 8.05 8.92C8.05 7.97 9 7.11 9.82 7.11L29.71 7.11L34.2 0.51L9.13 0.51C5.07 0.51 1.04 4.56 1.04 9.04C1.04 13.27 4.25 17.53 9.06 17.53C9.13 17.53 23.52 17.53 23.52 17.53C25.17 17.53 26.14 18.17 26.14 19.55C26.14 20.5 25.19 21.36 24.37 21.36L4.48 21.36L0 27.96L22.05 27.96C23.14 26.98 24.33 26.1 25.57 25.3C25.65 25.25 25.72 25.21 25.8 25.15C26.46 24.73 27.15 24.31 27.83 23.95C31.25 22.1 35.72 20.34 40.73 19.03ZM46.05 9.52L49.49 14.58C46.89 15.06 44.04 15.82 41.07 16.85L46.05 9.52Z" fill="#FFFFFF" fill-opacity="1.000000" fill-rule="nonzero"/>
</svg>
